<svg xmlns="http://www.w3.org/2000/svg" xmlns:xlink="http://www.w3.org/1999/xlink" width="70" zoomAndPan="magnify" viewBox="0 0 52.5 52.499999" height="70" preserveAspectRatio="xMidYMid meet" version="1.0"><defs><clipPath id="357ede58a2"><path d="M 6 1.480469 L 44 1.480469 L 44 50 L 6 50 Z M 6 1.480469 " clip-rule="nonzero"/></clipPath><clipPath id="11c06a0429"><path d="M 5.25 9 L 14 9 L 14 18 L 5.25 18 Z M 5.25 9 " clip-rule="nonzero"/></clipPath><clipPath id="96defff337"><path d="M 37 42 L 45.75 42 L 45.75 50.980469 L 37 50.980469 Z M 37 42 " clip-rule="nonzero"/></clipPath></defs><g clip-path="url(#357ede58a2)"><path fill="#100f0d" d="M 23.308594 48.09375 C 22.789062 46.835938 22.328125 45.53125 21.9375 44.203125 C 23.363281 44.367188 24.78125 44.449219 26.175781 44.449219 C 26.777344 44.449219 27.371094 44.433594 27.964844 44.402344 C 27.585938 45.667969 27.144531 46.910156 26.644531 48.117188 C 26.132812 48.164062 25.613281 48.1875 25.089844 48.1875 C 24.488281 48.1875 23.894531 48.15625 23.308594 48.09375 Z M 11.667969 41.671875 C 12.304688 41.917969 13.035156 42.179688 13.84375 42.4375 C 14.160156 42.542969 14.480469 42.640625 14.800781 42.738281 C 15.117188 43.667969 15.480469 44.589844 15.886719 45.492188 C 14.277344 44.457031 12.851562 43.164062 11.667969 41.671875 Z M 16.210938 16.175781 C 15.851562 17.066406 15.429688 18.195312 15.015625 19.527344 C 14.960938 19.703125 14.910156 19.878906 14.855469 20.054688 C 14.625 20.121094 14.390625 20.191406 14.15625 20.261719 C 12.777344 20.699219 11.617188 21.136719 10.722656 21.507812 C 12.132812 19.347656 14.007812 17.519531 16.210938 16.175781 Z M 39.144531 21.046875 C 38.230469 20.636719 37.289062 20.269531 36.339844 19.953125 C 36.226562 19.917969 36.113281 19.882812 36 19.84375 C 35.917969 19.558594 35.828125 19.277344 35.738281 18.992188 C 35.484375 18.195312 35.230469 17.476562 34.996094 16.851562 C 36.605469 18 38.011719 19.421875 39.144531 21.046875 Z M 35.359375 44.75 C 35.605469 44.15625 35.832031 43.554688 36.039062 42.949219 C 36.246094 42.882812 36.449219 42.8125 36.65625 42.742188 C 37.128906 42.582031 37.597656 42.40625 38.0625 42.21875 C 37.253906 43.15625 36.347656 44.003906 35.359375 44.75 Z M 21.582031 42.90625 C 21.0625 40.886719 20.691406 38.777344 20.476562 36.621094 C 22.453125 36.847656 24.414062 36.960938 26.339844 36.960938 C 27.390625 36.960938 28.433594 36.925781 29.460938 36.859375 C 29.234375 39.011719 28.851562 41.117188 28.320312 43.132812 C 26.136719 43.273438 23.871094 43.199219 21.582031 42.90625 Z M 14.5 35.617188 C 16.070312 35.964844 17.644531 36.25 19.214844 36.464844 C 19.417969 38.601562 19.761719 40.695312 20.253906 42.710938 C 18.757812 42.46875 17.257812 42.136719 15.773438 41.71875 C 15.15625 39.761719 14.726562 37.714844 14.5 35.617188 Z M 20.351562 20.078125 C 19.933594 21.953125 19.613281 23.839844 19.390625 25.71875 C 17.828125 25.925781 16.257812 26.203125 14.695312 26.546875 C 14.957031 24.722656 15.34375 22.882812 15.855469 21.0625 C 17.351562 20.648438 18.855469 20.316406 20.351562 20.078125 Z M 20.367188 35.355469 C 20.167969 32.601562 20.21875 29.742188 20.511719 26.835938 C 23.546875 26.484375 26.539062 26.402344 29.421875 26.59375 C 29.75 29.667969 29.800781 32.691406 29.578125 35.601562 C 26.601562 35.8125 23.507812 35.726562 20.367188 35.355469 Z M 30.535156 25.433594 C 30.300781 23.546875 29.96875 21.652344 29.542969 19.773438 C 31.414062 19.964844 33.242188 20.324219 35 20.839844 C 35.511719 22.652344 35.902344 24.484375 36.167969 26.304688 C 34.34375 25.894531 32.457031 25.605469 30.535156 25.433594 Z M 36.488281 34.546875 C 34.65625 34.988281 32.761719 35.304688 30.828125 35.496094 C 31.035156 32.648438 30.984375 29.695312 30.679688 26.695312 C 32.617188 26.882812 34.507812 27.191406 36.335938 27.625 C 36.601562 29.976562 36.652344 32.304688 36.488281 34.546875 Z M 42.25 30.933594 C 42.25 31.535156 42.222656 32.128906 42.160156 32.714844 C 40.757812 33.292969 39.300781 33.792969 37.824219 34.203125 C 37.800781 34.210938 37.773438 34.214844 37.75 34.222656 C 37.878906 32.179688 37.835938 30.074219 37.617188 27.949219 C 37.640625 27.953125 37.660156 27.957031 37.683594 27.964844 C 39.226562 28.386719 40.742188 28.90625 42.191406 29.507812 C 42.230469 29.976562 42.25 30.453125 42.25 30.933594 Z M 21.769531 19.875 C 23.96875 19.605469 26.144531 19.535156 28.246094 19.667969 C 28.683594 21.546875 29.03125 23.445312 29.273438 25.335938 C 26.480469 25.164062 23.585938 25.238281 20.65625 25.5625 C 20.894531 23.675781 21.230469 21.773438 21.664062 19.890625 C 21.699219 19.886719 21.734375 19.878906 21.769531 19.875 Z M 7.929688 30.933594 C 7.929688 30.546875 7.945312 30.167969 7.96875 29.785156 C 9.097656 29.371094 10.777344 28.808594 12.863281 28.265625 C 12.992188 28.230469 13.125 28.199219 13.253906 28.167969 C 13.0625 30.144531 13.015625 32.105469 13.125 34.007812 C 12.996094 33.972656 12.863281 33.941406 12.734375 33.90625 C 10.710938 33.375 9.089844 32.832031 7.996094 32.429688 C 7.953125 31.9375 7.929688 31.4375 7.929688 30.933594 Z M 14.390625 34.3125 C 14.246094 32.21875 14.292969 30.050781 14.53125 27.859375 C 16.101562 27.503906 17.679688 27.214844 19.25 26.996094 C 18.984375 29.785156 18.9375 32.535156 19.113281 35.191406 C 17.539062 34.96875 15.957031 34.675781 14.390625 34.3125 Z M 29.632812 43.023438 C 30.140625 41.003906 30.503906 38.902344 30.71875 36.757812 C 32.644531 36.578125 34.535156 36.277344 36.363281 35.859375 C 36.125 37.953125 35.6875 39.992188 35.066406 41.945312 C 33.316406 42.464844 31.496094 42.824219 29.632812 43.023438 Z M 39.574219 40.183594 C 38.578125 40.671875 37.546875 41.105469 36.503906 41.476562 C 37.058594 39.5625 37.4375 37.574219 37.644531 35.539062 C 37.8125 35.496094 37.984375 35.453125 38.152344 35.40625 C 39.441406 35.046875 40.714844 34.621094 41.953125 34.140625 C 41.542969 36.328125 40.722656 38.367188 39.574219 40.183594 Z M 40.011719 22.765625 C 40.074219 22.765625 40.132812 22.757812 40.191406 22.738281 C 41.074219 24.382812 41.703125 26.183594 42.019531 28.09375 C 40.71875 27.582031 39.375 27.136719 38.007812 26.761719 C 37.828125 26.710938 37.644531 26.667969 37.460938 26.621094 C 37.226562 24.84375 36.871094 23.0625 36.40625 21.292969 C 37.542969 21.691406 38.660156 22.164062 39.734375 22.703125 C 39.820312 22.746094 39.917969 22.765625 40.011719 22.765625 Z M 33.214844 15.738281 C 33.5625 16.554688 34.058594 17.808594 34.558594 19.371094 C 34.5625 19.390625 34.570312 19.410156 34.574219 19.425781 C 32.847656 18.96875 31.058594 18.65625 29.234375 18.492188 C 29.191406 18.320312 29.152344 18.152344 29.109375 17.984375 C 28.683594 16.34375 28.246094 14.957031 27.886719 13.910156 C 29.785156 14.226562 31.578125 14.851562 33.214844 15.738281 Z M 25.089844 13.679688 C 25.570312 13.679688 26.042969 13.703125 26.511719 13.742188 C 26.890625 14.804688 27.40625 16.371094 27.910156 18.300781 C 27.917969 18.332031 27.925781 18.367188 27.933594 18.402344 C 25.992188 18.304688 23.992188 18.371094 21.976562 18.597656 C 21.984375 18.5625 21.992188 18.53125 22 18.496094 C 22.515625 16.492188 23.046875 14.863281 23.441406 13.761719 C 23.984375 13.710938 24.535156 13.679688 25.089844 13.679688 Z M 17.890625 15.273438 C 19.203125 14.664062 20.601562 14.214844 22.0625 13.949219 C 21.691406 15.039062 21.238281 16.476562 20.800781 18.183594 C 20.75 18.378906 20.703125 18.574219 20.65625 18.769531 C 19.199219 18.984375 17.734375 19.28125 16.273438 19.660156 C 16.859375 17.820312 17.441406 16.398438 17.835938 15.515625 C 17.871094 15.4375 17.890625 15.355469 17.890625 15.273438 Z M 9.78125 23.144531 C 9.828125 23.15625 9.875 23.164062 9.921875 23.164062 C 10.007812 23.164062 10.09375 23.144531 10.179688 23.105469 C 11.074219 22.695312 12.539062 22.082031 14.457031 21.476562 C 13.988281 23.261719 13.636719 25.058594 13.402344 26.847656 C 13.121094 26.914062 12.835938 26.984375 12.554688 27.058594 C 10.746094 27.527344 9.238281 28.011719 8.113281 28.410156 C 8.386719 26.542969 8.960938 24.769531 9.78125 23.144531 Z M 8.171875 33.816406 C 9.253906 34.195312 10.695312 34.660156 12.421875 35.113281 C 12.6875 35.183594 12.957031 35.25 13.226562 35.316406 C 13.417969 37.363281 13.796875 39.367188 14.347656 41.292969 C 14.304688 41.277344 14.265625 41.265625 14.222656 41.253906 C 12.546875 40.710938 11.222656 40.167969 10.363281 39.78125 C 9.289062 37.980469 8.53125 35.964844 8.171875 33.816406 Z M 17.726562 46.449219 C 17.171875 45.378906 16.683594 44.269531 16.261719 43.140625 C 17.703125 43.515625 19.152344 43.8125 20.597656 44.027344 C 20.964844 45.335938 21.394531 46.628906 21.886719 47.886719 C 20.4375 47.609375 19.054688 47.148438 17.761719 46.53125 C 17.75 46.503906 17.738281 46.476562 17.726562 46.449219 Z M 28.058594 47.929688 C 28.519531 46.75 28.933594 45.535156 29.285156 44.308594 C 31.089844 44.144531 32.855469 43.832031 34.566406 43.378906 C 34.230469 44.269531 33.851562 45.148438 33.4375 46.003906 C 31.789062 46.929688 29.980469 47.589844 28.058594 47.929688 Z M 34.308594 46.976562 C 34.332031 46.957031 34.351562 46.929688 34.371094 46.902344 C 36.820312 45.457031 38.910156 43.460938 40.46875 41.082031 C 40.515625 41.03125 40.550781 40.976562 40.578125 40.914062 C 42.027344 38.648438 43 36.042969 43.347656 33.246094 C 43.351562 33.226562 43.355469 33.210938 43.355469 33.191406 C 43.445312 32.453125 43.492188 31.699219 43.492188 30.933594 C 43.492188 30.292969 43.460938 29.65625 43.394531 29.027344 C 43.394531 29.015625 43.390625 29 43.390625 28.988281 C 42.441406 19.902344 34.921875 12.753906 25.710938 12.445312 L 25.710938 2.105469 C 25.710938 1.761719 25.433594 1.480469 25.089844 1.480469 C 24.75 1.480469 24.472656 1.761719 24.472656 2.105469 L 24.472656 12.445312 C 24 12.460938 23.53125 12.496094 23.066406 12.546875 C 22.972656 12.535156 22.878906 12.546875 22.792969 12.578125 C 14.277344 13.652344 7.550781 20.597656 6.769531 29.242188 C 6.761719 29.273438 6.761719 29.300781 6.757812 29.332031 C 6.714844 29.859375 6.691406 30.394531 6.691406 30.933594 C 6.691406 31.601562 6.726562 32.257812 6.792969 32.90625 C 6.796875 32.933594 6.800781 32.957031 6.804688 32.980469 C 7.105469 35.714844 7.996094 38.269531 9.355469 40.515625 C 9.378906 40.570312 9.410156 40.621094 9.449219 40.667969 C 12.277344 45.246094 17.042969 48.5 22.582031 49.261719 C 22.679688 49.320312 22.789062 49.351562 22.902344 49.351562 C 22.960938 49.351562 23.023438 49.34375 23.082031 49.324219 C 23.742188 49.394531 24.414062 49.433594 25.089844 49.433594 C 25.730469 49.433594 26.359375 49.402344 26.984375 49.335938 C 27.007812 49.339844 27.035156 49.34375 27.0625 49.34375 C 27.136719 49.34375 27.207031 49.328125 27.277344 49.304688 C 29.65625 49.019531 31.898438 48.277344 33.914062 47.164062 C 34.070312 47.152344 34.207031 47.085938 34.308594 46.976562 " fill-opacity="1" fill-rule="nonzero"/></g><g clip-path="url(#11c06a0429)"><path fill="#100f0d" d="M 8.46875 12.933594 C 8.574219 12.875 8.660156 12.789062 8.714844 12.683594 L 9.429688 11.371094 L 10.144531 12.683594 C 10.199219 12.789062 10.285156 12.875 10.390625 12.933594 L 11.695312 13.648438 L 10.390625 14.367188 C 10.285156 14.421875 10.199219 14.507812 10.144531 14.613281 L 9.429688 15.925781 L 8.714844 14.613281 C 8.660156 14.507812 8.574219 14.421875 8.46875 14.367188 L 7.164062 13.648438 Z M 8.886719 17.523438 C 8.992188 17.722656 9.203125 17.847656 9.429688 17.847656 C 9.65625 17.847656 9.863281 17.722656 9.972656 17.523438 L 11.144531 15.371094 L 13.28125 14.195312 C 13.480469 14.085938 13.605469 13.875 13.605469 13.648438 C 13.605469 13.421875 13.480469 13.210938 13.28125 13.101562 L 11.144531 11.925781 L 9.972656 9.773438 C 9.863281 9.574219 9.65625 9.449219 9.429688 9.449219 C 9.203125 9.449219 8.992188 9.574219 8.886719 9.773438 L 7.714844 11.925781 L 5.574219 13.101562 C 5.375 13.210938 5.253906 13.421875 5.253906 13.648438 C 5.253906 13.875 5.375 14.085938 5.574219 14.195312 L 7.714844 15.371094 L 8.886719 17.523438 " fill-opacity="1" fill-rule="nonzero"/></g><g clip-path="url(#96defff337)"><path fill="#100f0d" d="M 42.539062 47.492188 C 42.433594 47.546875 42.347656 47.632812 42.292969 47.738281 L 41.578125 49.050781 L 40.867188 47.738281 C 40.808594 47.632812 40.722656 47.546875 40.621094 47.492188 L 39.316406 46.773438 L 40.621094 46.058594 C 40.722656 46 40.808594 45.914062 40.867188 45.808594 L 41.578125 44.496094 L 42.292969 45.808594 C 42.347656 45.914062 42.433594 46 42.539062 46.058594 L 43.84375 46.773438 Z M 45.433594 46.226562 L 43.292969 45.050781 L 42.121094 42.898438 C 42.015625 42.699219 41.804688 42.574219 41.578125 42.574219 C 41.351562 42.574219 41.144531 42.699219 41.035156 42.898438 L 39.863281 45.050781 L 37.726562 46.226562 C 37.527344 46.335938 37.402344 46.546875 37.402344 46.773438 C 37.402344 47 37.527344 47.210938 37.726562 47.320312 L 39.863281 48.496094 L 41.035156 50.648438 C 41.144531 50.847656 41.351562 50.972656 41.578125 50.972656 C 41.804688 50.972656 42.015625 50.847656 42.121094 50.648438 L 43.292969 48.496094 L 45.433594 47.320312 C 45.632812 47.210938 45.753906 47 45.753906 46.773438 C 45.753906 46.546875 45.632812 46.335938 45.433594 46.226562 " fill-opacity="1" fill-rule="nonzero"/></g></svg>