<svg xmlns="http://www.w3.org/2000/svg" xmlns:xlink="http://www.w3.org/1999/xlink" width="300" zoomAndPan="magnify" viewBox="0 0 224.87999 225" height="300" preserveAspectRatio="xMidYMid meet" version="1.0"><path fill="#ffffff" d="M 114.6875 80.445312 L 114.6875 96.453125 L 115.65625 96.453125 L 115.65625 64.433594 L 114.6875 64.433594 Z M 114.6875 80.445312 " fill-opacity="1" fill-rule="nonzero"/><path fill="#ffffff" d="M 134.507812 86.335938 L 134.507812 86.890625 L 137.320312 86.890625 C 138.859375 86.890625 140.34375 86.957031 140.621094 87.027344 C 141.203125 87.195312 141.757812 87.75 141.980469 88.398438 C 142.1875 89.023438 142.199219 119.570312 141.992188 121.207031 C 141.714844 123.425781 141.160156 124.824219 140.316406 125.460938 C 139.871094 125.78125 138.820312 125.917969 138.417969 125.710938 C 138.25 125.628906 137.804688 125.101562 137.433594 124.546875 C 136.449219 123.089844 136.308594 122.996094 135.242188 122.996094 C 134.410156 122.996094 134.3125 123.023438 133.941406 123.453125 C 133.605469 123.8125 133.539062 124.019531 133.539062 124.589844 C 133.539062 125.988281 134.703125 126.667969 137.128906 126.667969 C 139.691406 126.667969 141.230469 126.070312 142.835938 124.464844 C 144.03125 123.273438 144.695312 122.078125 145.207031 120.222656 C 145.511719 119.113281 145.511719 119.085938 145.597656 103.730469 C 145.652344 92.613281 145.707031 88.246094 145.816406 87.996094 C 145.914062 87.804688 146.152344 87.5 146.359375 87.304688 C 146.71875 86.957031 146.761719 86.957031 149.421875 86.917969 L 152.109375 86.875 L 152.109375 85.78125 L 134.507812 85.78125 Z M 134.507812 86.335938 " fill-opacity="1" fill-rule="nonzero"/><path fill="#ffffff" d="M 77.542969 86.070312 C 76.433594 86.140625 73.855469 86.15625 71.820312 86.113281 L 68.089844 86.03125 L 68.144531 86.347656 C 68.1875 86.667969 68.257812 86.679688 69.53125 86.765625 C 71.554688 86.902344 72.179688 87.375 72.429688 88.96875 C 72.511719 89.535156 72.554688 94.707031 72.523438 103.035156 C 72.484375 116.132812 72.484375 116.203125 72.191406 116.839844 C 71.777344 117.726562 71.042969 118.074219 69.324219 118.199219 C 68.1875 118.269531 68.046875 118.308594 68.046875 118.546875 C 68.046875 118.808594 68.214844 118.824219 73.871094 118.878906 C 84.902344 118.976562 84.804688 118.976562 86.371094 118.644531 C 91.914062 117.476562 96.046875 114.414062 98.402344 109.757812 C 99.609375 107.359375 100.132812 104.992188 100.132812 101.941406 C 100.132812 97.617188 98.816406 94.332031 95.90625 91.378906 C 93.203125 88.636719 89.863281 86.945312 85.789062 86.25 C 84.25 85.988281 80.230469 85.90625 77.542969 86.070312 Z M 85.277344 87.167969 C 90.695312 88.46875 94.425781 93.125 95.503906 99.917969 C 95.808594 101.84375 95.714844 105.667969 95.3125 107.402344 C 94.023438 112.90625 91.027344 116.203125 85.929688 117.742188 C 84.777344 118.101562 84.488281 118.128906 82.117188 118.128906 C 80.039062 118.144531 79.398438 118.101562 78.761719 117.894531 C 77.277344 117.4375 76.65625 116.589844 76.421875 114.707031 C 76.210938 112.960938 76.324219 89.46875 76.542969 88.789062 C 76.792969 88.082031 77.5 87.402344 78.25 87.179688 C 79.800781 86.695312 83.351562 86.695312 85.277344 87.167969 Z M 85.277344 87.167969 " fill-opacity="1" fill-rule="nonzero"/><path fill="#ffffff" d="M 112.054688 98.003906 C 111.402344 98.449219 111.027344 99.253906 110.972656 100.347656 C 110.890625 101.816406 111.152344 102.203125 113.425781 103.894531 C 113.925781 104.253906 114.523438 104.867188 114.769531 105.226562 C 115.214844 105.863281 115.226562 105.878906 115.394531 105.585938 C 115.65625 105.085938 116.628906 104.101562 117.375 103.5625 C 119.09375 102.34375 119.398438 101.871094 119.398438 100.472656 C 119.398438 99.347656 119.191406 98.765625 118.597656 98.199219 C 117.683594 97.339844 116.324219 97.628906 115.535156 98.835938 L 115.199219 99.347656 L 114.8125 98.738281 C 114.148438 97.6875 112.984375 97.382812 112.054688 98.003906 Z M 112.054688 98.003906 " fill-opacity="1" fill-rule="nonzero"/><path fill="#ffffff" d="M 114.6875 124.171875 L 114.6875 140.113281 L 115.65625 140.113281 L 115.65625 108.234375 L 114.6875 108.234375 Z M 114.6875 124.171875 " fill-opacity="1" fill-rule="nonzero"/><path fill="#ffffff" d="M 127.898438 162.566406 C 127.660156 162.703125 127.382812 162.953125 127.316406 163.105469 C 127.078125 163.523438 127.132812 164.394531 127.425781 164.964844 L 127.6875 165.460938 L 127.21875 165.824219 C 126.273438 166.542969 126.09375 167.417969 126.730469 168.136719 C 127.066406 168.511719 127.230469 168.582031 127.9375 168.636719 C 128.742188 168.691406 129.351562 168.523438 129.949219 168.09375 C 130.128906 167.957031 130.253906 167.984375 130.597656 168.21875 C 130.902344 168.441406 131.222656 168.523438 131.75 168.523438 L 132.46875 168.523438 L 131.609375 168.09375 C 131.140625 167.859375 130.722656 167.597656 130.683594 167.5 C 130.65625 167.417969 130.808594 166.917969 131.015625 166.378906 C 131.320312 165.640625 131.5 165.394531 131.75 165.324219 C 131.945312 165.269531 131.609375 165.226562 130.972656 165.210938 C 129.988281 165.199219 129.90625 165.226562 130.210938 165.378906 C 130.476562 165.503906 130.570312 165.683594 130.597656 166.085938 C 130.65625 166.710938 130.542969 167.277344 130.363281 167.277344 C 130.167969 167.277344 128.410156 165.476562 128.410156 165.28125 C 128.410156 165.183594 128.660156 164.9375 128.949219 164.699219 C 129.949219 163.953125 130.183594 163.21875 129.585938 162.636719 C 129.171875 162.207031 128.519531 162.175781 127.898438 162.566406 Z M 129.074219 162.816406 C 129.15625 162.941406 129.242188 163.21875 129.242188 163.4375 C 129.242188 164.160156 128.4375 165.144531 128.117188 164.824219 C 127.910156 164.617188 127.675781 163.4375 127.773438 163.0625 C 127.925781 162.453125 128.660156 162.316406 129.074219 162.816406 Z M 128.8125 166.738281 C 129.433594 167.347656 129.933594 167.875 129.933594 167.902344 C 129.933594 167.941406 129.753906 168.054688 129.519531 168.179688 C 128.421875 168.746094 127.023438 168.039062 127.023438 166.929688 C 127.023438 166.570312 127.46875 165.613281 127.632812 165.613281 C 127.675781 165.613281 128.203125 166.113281 128.8125 166.738281 Z M 128.8125 166.738281 " fill-opacity="1" fill-rule="nonzero"/><path fill="#ffffff" d="M 94.6875 162.550781 C 95.296875 162.703125 95.5625 162.941406 95.851562 163.605469 L 96.117188 164.160156 L 96.117188 163.589844 C 96.117188 162.789062 95.90625 162.566406 95.007812 162.496094 C 94.410156 162.441406 94.339844 162.453125 94.6875 162.550781 Z M 94.6875 162.550781 " fill-opacity="1" fill-rule="nonzero"/><path fill="#ffffff" d="M 103.390625 162.523438 C 104.152344 162.691406 104.472656 162.910156 104.722656 163.453125 L 104.984375 164.019531 L 104.984375 163.371094 C 104.984375 162.730469 104.972656 162.71875 104.472656 162.578125 C 104.183594 162.496094 103.765625 162.441406 103.53125 162.441406 C 103.253906 162.453125 103.210938 162.480469 103.390625 162.523438 Z M 103.390625 162.523438 " fill-opacity="1" fill-rule="nonzero"/><path fill="#ffffff" d="M 152.96875 162.675781 C 151.597656 163.175781 150.863281 164.199219 150.863281 165.628906 C 150.863281 166.683594 151.222656 167.511719 151.929688 168.09375 C 153.425781 169.328125 155.9375 168.773438 156.851562 167.015625 C 158.222656 164.382812 155.796875 161.664062 152.96875 162.675781 Z M 155.339844 163.160156 C 156.835938 164.296875 156.835938 167.332031 155.355469 168.261719 C 154.648438 168.691406 153.648438 168.664062 152.941406 168.191406 C 151.527344 167.265625 151.140625 164.660156 152.207031 163.398438 C 152.691406 162.800781 152.996094 162.703125 153.996094 162.746094 C 154.675781 162.773438 154.953125 162.855469 155.339844 163.160156 Z M 155.339844 163.160156 " fill-opacity="1" fill-rule="nonzero"/><path fill="#ffffff" d="M 163.667969 162.621094 C 163.074219 162.882812 162.78125 163.355469 162.78125 164.035156 C 162.78125 164.714844 163.074219 165.074219 164.210938 165.792969 C 165.140625 166.390625 165.484375 166.863281 165.484375 167.597656 C 165.484375 168 165.402344 168.207031 165.152344 168.402344 C 164.460938 168.96875 163.460938 168.59375 162.921875 167.582031 L 162.65625 167.070312 L 162.644531 167.734375 C 162.644531 168.359375 162.671875 168.414062 163.128906 168.609375 C 164.527344 169.191406 166.109375 168.484375 166.109375 167.265625 C 166.109375 166.445312 165.859375 166.070312 164.847656 165.40625 C 163.324219 164.394531 162.960938 163.632812 163.683594 162.910156 C 164.308594 162.273438 165.167969 162.523438 165.625 163.464844 C 165.902344 164.078125 165.941406 164.046875 165.859375 163.300781 C 165.816406 162.800781 165.75 162.703125 165.386719 162.578125 C 164.820312 162.371094 164.195312 162.398438 163.667969 162.621094 Z M 163.667969 162.621094 " fill-opacity="1" fill-rule="nonzero"/><path fill="#ffffff" d="M 53.910156 162.675781 L 54.328125 162.773438 L 54.328125 168.457031 L 53.910156 168.539062 C 53.6875 168.59375 54.230469 168.636719 55.144531 168.648438 C 57.167969 168.664062 57.738281 168.511719 58.566406 167.695312 C 60.039062 166.28125 59.746094 164.019531 57.972656 163.050781 C 57.265625 162.648438 57.15625 162.636719 55.367188 162.605469 C 54.339844 162.59375 53.6875 162.621094 53.910156 162.675781 Z M 57.570312 163.105469 C 58.582031 163.828125 59.011719 165.824219 58.429688 167.070312 C 57.972656 168.066406 57.238281 168.523438 56.128906 168.523438 C 55.117188 168.523438 55.089844 168.457031 55.089844 165.558594 C 55.089844 163.730469 55.128906 162.980469 55.269531 162.855469 C 55.546875 162.566406 57.03125 162.71875 57.570312 163.105469 Z M 57.570312 163.105469 " fill-opacity="1" fill-rule="nonzero"/><path fill="#ffffff" d="M 65.191406 162.757812 C 65.304688 162.882812 65.34375 163.785156 65.316406 165.699219 L 65.277344 168.457031 L 64.859375 168.539062 C 64.640625 168.59375 65.414062 168.636719 66.621094 168.648438 L 68.78125 168.664062 L 68.839844 167.984375 C 68.851562 167.609375 68.839844 167.332031 68.78125 167.375 C 68.714844 167.402344 68.671875 167.511719 68.671875 167.609375 C 68.671875 168.207031 67.21875 168.707031 66.414062 168.402344 L 66.023438 168.25 L 66.066406 166.902344 L 66.109375 165.546875 L 66.539062 165.503906 C 67.230469 165.433594 67.894531 165.671875 68.074219 166.042969 C 68.230469 166.335938 68.257812 166.28125 68.242188 165.476562 C 68.242188 164.976562 68.199219 164.671875 68.160156 164.78125 C 68.019531 165.183594 67.644531 165.335938 66.84375 165.335938 L 66.039062 165.335938 L 66.039062 164.1875 C 66.039062 163.480469 66.109375 162.96875 66.203125 162.871094 C 66.425781 162.648438 67.730469 162.664062 68.007812 162.871094 C 68.117188 162.96875 68.285156 163.175781 68.367188 163.328125 C 68.503906 163.5625 68.519531 163.535156 68.535156 163.078125 L 68.535156 162.566406 L 66.789062 162.566406 C 65.316406 162.566406 65.054688 162.59375 65.191406 162.757812 Z M 65.191406 162.757812 " fill-opacity="1" fill-rule="nonzero"/><path fill="#ffffff" d="M 74.257812 162.789062 L 74.632812 162.996094 L 74.605469 165.65625 L 74.5625 168.304688 L 74.214844 168.484375 C 73.898438 168.636719 73.953125 168.664062 74.769531 168.648438 C 75.519531 168.648438 75.617188 168.621094 75.351562 168.496094 C 74.921875 168.289062 74.894531 168.066406 74.9375 165.585938 L 74.976562 163.398438 L 77.265625 166.128906 L 79.550781 168.871094 L 79.636719 165.890625 C 79.675781 164.257812 79.71875 162.898438 79.734375 162.871094 C 79.746094 162.855469 79.898438 162.773438 80.078125 162.703125 C 80.300781 162.621094 80.164062 162.578125 79.484375 162.578125 C 78.816406 162.578125 78.664062 162.621094 78.886719 162.703125 C 79.316406 162.882812 79.359375 163.175781 79.316406 165.460938 L 79.273438 167.457031 L 77.265625 165.019531 L 75.253906 162.578125 L 73.871094 162.578125 Z M 74.257812 162.789062 " fill-opacity="1" fill-rule="nonzero"/><path fill="#ffffff" d="M 85.375 162.664062 C 85.984375 162.816406 85.996094 162.898438 85.996094 165.613281 C 85.996094 168.332031 85.984375 168.414062 85.375 168.566406 C 85.222656 168.59375 85.664062 168.636719 86.34375 168.621094 C 87.035156 168.621094 87.4375 168.59375 87.246094 168.566406 C 87.050781 168.523438 86.855469 168.429688 86.800781 168.332031 C 86.746094 168.25 86.691406 167.015625 86.691406 165.601562 C 86.691406 162.898438 86.703125 162.816406 87.3125 162.664062 C 87.464844 162.636719 87.035156 162.59375 86.34375 162.59375 C 85.664062 162.59375 85.222656 162.636719 85.375 162.664062 Z M 85.375 162.664062 " fill-opacity="1" fill-rule="nonzero"/><path fill="#ffffff" d="M 93.355469 162.96875 C 93.011719 163.285156 92.925781 163.480469 92.925781 163.921875 C 92.925781 164.601562 93.246094 165.03125 94.285156 165.738281 C 95.339844 166.445312 95.574219 166.738281 95.65625 167.390625 C 95.726562 167.859375 95.671875 168.011719 95.378906 168.304688 C 94.660156 169.023438 93.566406 168.636719 93.050781 167.5 L 92.789062 166.929688 L 92.789062 167.582031 C 92.789062 167.984375 92.871094 168.304688 92.996094 168.441406 C 93.46875 168.914062 95.035156 168.898438 95.6875 168.414062 C 95.878906 168.277344 96.128906 167.914062 96.238281 167.609375 C 96.546875 166.75 96.238281 166.210938 94.980469 165.363281 C 93.703125 164.507812 93.550781 164.324219 93.550781 163.648438 C 93.550781 163.230469 93.632812 163.023438 93.882812 162.828125 C 94.105469 162.648438 94.148438 162.566406 93.996094 162.566406 C 93.882812 162.566406 93.59375 162.746094 93.355469 162.96875 Z M 93.355469 162.96875 " fill-opacity="1" fill-rule="nonzero"/><path fill="#ffffff" d="M 102.378906 162.910156 C 101.453125 163.6875 101.714844 164.714844 103.074219 165.613281 C 104.265625 166.417969 104.570312 166.792969 104.570312 167.511719 C 104.570312 169.078125 102.808594 169.078125 102.003906 167.527344 C 101.671875 166.875 101.644531 166.847656 101.714844 167.265625 C 101.757812 167.511719 101.796875 167.875 101.796875 168.066406 C 101.796875 168.316406 101.921875 168.457031 102.28125 168.609375 C 103.695312 169.191406 105.261719 168.414062 105.261719 167.140625 C 105.261719 166.472656 104.917969 166.042969 103.835938 165.308594 C 103.363281 165.003906 102.863281 164.617188 102.742188 164.449219 C 102.394531 164.035156 102.421875 163.273438 102.796875 162.882812 C 103.199219 162.453125 102.894531 162.480469 102.378906 162.910156 Z M 102.378906 162.910156 " fill-opacity="1" fill-rule="nonzero"/><path fill="#ffffff" d="M 111 162.789062 C 111.179688 162.96875 111.222656 163.425781 111.222656 165.601562 C 111.222656 168.332031 111.207031 168.414062 110.597656 168.566406 C 110.445312 168.609375 111.292969 168.621094 112.46875 168.609375 L 114.617188 168.59375 L 114.660156 167.902344 L 114.6875 167.207031 L 114.453125 167.679688 C 114.09375 168.386719 112.898438 168.761719 112.179688 168.386719 C 111.945312 168.25 111.914062 168.082031 111.914062 166.863281 L 111.914062 165.476562 L 112.457031 165.476562 C 113.164062 165.476562 113.828125 165.726562 113.898438 166.003906 C 113.9375 166.128906 113.96875 165.890625 113.980469 165.476562 C 113.996094 164.753906 113.980469 164.742188 113.773438 165.03125 C 113.59375 165.296875 113.441406 165.335938 112.734375 165.335938 L 111.902344 165.335938 L 111.945312 164.046875 L 111.984375 162.773438 L 112.761719 162.730469 C 113.621094 162.691406 114.203125 163.007812 114.3125 163.578125 C 114.339844 163.742188 114.382812 163.589844 114.398438 163.21875 L 114.410156 162.566406 L 112.59375 162.566406 C 110.945312 162.566406 110.808594 162.578125 111 162.789062 Z M 111 162.789062 " fill-opacity="1" fill-rule="nonzero"/><path fill="#ffffff" d="M 143.863281 162.691406 L 144.28125 162.773438 L 144.320312 166.5 C 144.347656 169.660156 144.320312 170.285156 144.140625 170.5625 C 143.878906 170.949219 143.574219 170.980469 143.378906 170.605469 C 143.226562 170.3125 142.753906 170.230469 142.617188 170.464844 C 142.339844 170.921875 143.390625 171.199219 144.125 170.855469 C 144.917969 170.492188 144.972656 170.285156 145.042969 166.445312 L 145.109375 162.925781 L 145.457031 162.746094 C 145.761719 162.59375 145.664062 162.566406 144.625 162.578125 C 143.90625 162.59375 143.613281 162.636719 143.863281 162.691406 Z M 143.863281 162.691406 " fill-opacity="1" fill-rule="nonzero"/><path fill="#ffffff" d="M 171.902344 162.730469 C 172.082031 162.910156 172.136719 168.054688 171.957031 168.332031 C 171.902344 168.429688 171.707031 168.523438 171.515625 168.566406 C 171.320312 168.59375 172.152344 168.636719 173.359375 168.648438 L 175.535156 168.664062 L 175.535156 167.207031 L 175.285156 167.695312 C 174.980469 168.316406 174.148438 168.648438 173.359375 168.441406 L 172.832031 168.316406 L 172.789062 166.890625 L 172.75 165.476562 L 173.21875 165.476562 C 174.09375 165.476562 174.5625 165.640625 174.785156 166.015625 C 174.894531 166.210938 174.964844 166.265625 174.925781 166.128906 C 174.882812 165.988281 174.839844 165.65625 174.839844 165.378906 C 174.839844 164.949219 174.828125 164.921875 174.621094 165.117188 C 174.480469 165.269531 174.148438 165.335938 173.578125 165.335938 L 172.761719 165.335938 L 172.761719 164.105469 C 172.761719 162.71875 172.761719 162.703125 173.855469 162.703125 C 174.523438 162.703125 174.953125 162.980469 175.160156 163.535156 C 175.203125 163.648438 175.242188 163.480469 175.242188 163.148438 L 175.257812 162.566406 L 173.496094 162.566406 C 172.125 162.566406 171.777344 162.605469 171.902344 162.730469 Z M 171.902344 162.730469 " fill-opacity="1" fill-rule="nonzero"/></svg>