<svg xmlns="http://www.w3.org/2000/svg" xmlns:xlink="http://www.w3.org/1999/xlink" width="300" zoomAndPan="magnify" viewBox="0 0 224.87999 225" height="300" preserveAspectRatio="xMidYMid meet" version="1.0"><path fill="#ffffff" d="M 115.921875 58.414062 L 115.921875 83.398438 L 117.4375 83.398438 L 117.4375 33.433594 L 115.921875 33.433594 Z M 115.921875 58.414062 " fill-opacity="1" fill-rule="nonzero"/><path fill="#ffffff" d="M 146.851562 67.609375 L 146.851562 68.472656 L 151.242188 68.472656 C 153.644531 68.472656 155.957031 68.582031 156.390625 68.6875 C 157.300781 68.949219 158.164062 69.8125 158.511719 70.832031 C 158.835938 71.804688 158.855469 119.476562 158.53125 122.027344 C 158.101562 125.488281 157.234375 127.671875 155.914062 128.667969 C 155.222656 129.164062 153.578125 129.382812 152.953125 129.058594 C 152.691406 128.925781 152 128.105469 151.417969 127.242188 C 149.882812 124.96875 149.664062 124.816406 148 124.816406 C 146.703125 124.816406 146.550781 124.863281 145.964844 125.53125 C 145.445312 126.09375 145.339844 126.417969 145.339844 127.304688 C 145.339844 129.488281 147.15625 130.550781 150.941406 130.550781 C 154.941406 130.550781 157.34375 129.621094 159.851562 127.109375 C 161.710938 125.25 162.75 123.390625 163.550781 120.492188 C 164.027344 118.761719 164.027344 118.71875 164.15625 94.753906 C 164.242188 77.40625 164.328125 70.59375 164.503906 70.203125 C 164.652344 69.902344 165.023438 69.425781 165.347656 69.121094 C 165.910156 68.582031 165.972656 68.582031 170.125 68.515625 L 174.324219 68.453125 L 174.324219 66.742188 L 146.851562 66.742188 Z M 146.851562 67.609375 " fill-opacity="1" fill-rule="nonzero"/><path fill="#ffffff" d="M 57.957031 67.195312 C 56.226562 67.304688 52.203125 67.328125 49.023438 67.261719 L 43.203125 67.132812 L 43.289062 67.628906 C 43.355469 68.128906 43.464844 68.148438 45.453125 68.277344 C 48.613281 68.496094 49.585938 69.230469 49.972656 71.71875 C 50.105469 72.605469 50.167969 80.671875 50.125 93.671875 C 50.0625 114.113281 50.0625 114.21875 49.605469 115.214844 C 48.957031 116.597656 47.8125 117.140625 45.128906 117.335938 C 43.355469 117.441406 43.140625 117.507812 43.140625 117.875 C 43.140625 118.285156 43.398438 118.308594 52.222656 118.394531 C 69.441406 118.546875 69.289062 118.546875 71.734375 118.027344 C 80.386719 116.210938 86.832031 111.429688 90.507812 104.160156 C 92.390625 100.421875 93.210938 96.722656 93.210938 91.960938 C 93.210938 85.214844 91.15625 80.089844 86.613281 75.480469 C 82.398438 71.199219 77.183594 68.558594 70.824219 67.476562 C 68.425781 67.066406 62.152344 66.9375 57.957031 67.195312 Z M 70.023438 68.90625 C 78.480469 70.9375 84.300781 78.207031 85.988281 88.804688 C 86.464844 91.8125 86.3125 97.78125 85.683594 100.484375 C 83.671875 109.070312 79 114.21875 71.042969 116.621094 C 69.246094 117.183594 68.792969 117.226562 65.09375 117.226562 C 61.847656 117.246094 60.855469 117.183594 59.859375 116.859375 C 57.542969 116.144531 56.570312 114.824219 56.203125 111.882812 C 55.878906 109.160156 56.050781 72.496094 56.398438 71.4375 C 56.789062 70.332031 57.890625 69.273438 59.058594 68.925781 C 61.480469 68.171875 67.019531 68.171875 70.023438 68.90625 Z M 70.023438 68.90625 " fill-opacity="1" fill-rule="nonzero"/><path fill="#ffffff" d="M 111.8125 85.820312 C 110.796875 86.511719 110.210938 87.765625 110.125 89.476562 C 109.996094 91.769531 110.40625 92.375 113.953125 95.011719 C 114.734375 95.574219 115.664062 96.527344 116.050781 97.089844 C 116.746094 98.082031 116.765625 98.105469 117.027344 97.652344 C 117.4375 96.871094 118.949219 95.335938 120.117188 94.492188 C 122.800781 92.589844 123.277344 91.855469 123.277344 89.671875 C 123.277344 87.917969 122.953125 87.007812 122.023438 86.121094 C 120.59375 84.78125 118.476562 85.234375 117.242188 87.117188 L 116.722656 87.917969 L 116.117188 86.964844 C 115.078125 85.324219 113.261719 84.847656 111.8125 85.820312 Z M 111.8125 85.820312 " fill-opacity="1" fill-rule="nonzero"/><path fill="#ffffff" d="M 115.921875 126.65625 L 115.921875 151.53125 L 117.4375 151.53125 L 117.4375 101.78125 L 115.921875 101.78125 Z M 115.921875 126.65625 " fill-opacity="1" fill-rule="nonzero"/><path fill="#ffffff" d="M 136.535156 186.570312 C 136.167969 186.785156 135.734375 187.175781 135.628906 187.414062 C 135.257812 188.0625 135.347656 189.425781 135.800781 190.3125 L 136.210938 191.089844 L 135.476562 191.652344 C 134.003906 192.777344 133.722656 194.140625 134.71875 195.265625 C 135.238281 195.847656 135.496094 195.957031 136.601562 196.042969 C 137.855469 196.128906 138.808594 195.871094 139.738281 195.199219 C 140.019531 194.984375 140.210938 195.027344 140.753906 195.394531 C 141.230469 195.742188 141.726562 195.871094 142.546875 195.871094 L 143.671875 195.871094 L 142.332031 195.199219 C 141.597656 194.832031 140.949219 194.421875 140.882812 194.269531 C 140.839844 194.140625 141.078125 193.363281 141.402344 192.519531 C 141.878906 191.371094 142.160156 190.984375 142.546875 190.875 C 142.851562 190.789062 142.332031 190.722656 141.335938 190.703125 C 139.800781 190.679688 139.671875 190.722656 140.148438 190.960938 C 140.558594 191.15625 140.710938 191.4375 140.753906 192.0625 C 140.839844 193.039062 140.667969 193.925781 140.386719 193.925781 C 140.082031 193.925781 137.335938 191.113281 137.335938 190.808594 C 137.335938 190.660156 137.726562 190.269531 138.179688 189.902344 C 139.738281 188.734375 140.105469 187.585938 139.175781 186.679688 C 138.527344 186.007812 137.507812 185.964844 136.535156 186.570312 Z M 138.375 186.960938 C 138.503906 187.15625 138.632812 187.585938 138.632812 187.933594 C 138.632812 189.058594 137.378906 190.59375 136.882812 190.097656 C 136.558594 189.773438 136.191406 187.933594 136.339844 187.347656 C 136.578125 186.398438 137.726562 186.179688 138.375 186.960938 Z M 137.964844 193.082031 C 138.9375 194.03125 139.714844 194.855469 139.714844 194.898438 C 139.714844 194.960938 139.433594 195.136719 139.066406 195.332031 C 137.359375 196.21875 135.171875 195.113281 135.171875 193.382812 C 135.171875 192.820312 135.863281 191.328125 136.125 191.328125 C 136.191406 191.328125 137.011719 192.109375 137.964844 193.082031 Z M 137.964844 193.082031 " fill-opacity="1" fill-rule="nonzero"/><path fill="#ffffff" d="M 84.710938 186.546875 C 85.664062 186.785156 86.074219 187.15625 86.527344 188.191406 L 86.9375 189.058594 L 86.9375 188.171875 C 86.9375 186.917969 86.613281 186.570312 85.207031 186.460938 C 84.277344 186.375 84.171875 186.398438 84.710938 186.546875 Z M 84.710938 186.546875 " fill-opacity="1" fill-rule="nonzero"/><path fill="#ffffff" d="M 98.292969 186.503906 C 99.484375 186.765625 99.980469 187.109375 100.371094 187.953125 L 100.78125 188.839844 L 100.78125 187.824219 C 100.78125 186.828125 100.761719 186.808594 99.980469 186.59375 C 99.527344 186.460938 98.878906 186.375 98.511719 186.375 C 98.078125 186.398438 98.011719 186.441406 98.292969 186.503906 Z M 98.292969 186.503906 " fill-opacity="1" fill-rule="nonzero"/><path fill="#ffffff" d="M 175.664062 186.742188 C 173.523438 187.523438 172.375 189.121094 172.375 191.351562 C 172.375 192.996094 172.9375 194.292969 174.042969 195.199219 C 176.378906 197.125 180.292969 196.261719 181.71875 193.511719 C 183.859375 189.402344 180.074219 185.164062 175.664062 186.742188 Z M 179.363281 187.5 C 181.699219 189.273438 181.699219 194.011719 179.382812 195.460938 C 178.28125 196.128906 176.722656 196.085938 175.621094 195.351562 C 173.414062 193.902344 172.808594 189.835938 174.472656 187.867188 C 175.230469 186.9375 175.707031 186.785156 177.265625 186.851562 C 178.324219 186.894531 178.757812 187.023438 179.363281 187.5 Z M 179.363281 187.5 " fill-opacity="1" fill-rule="nonzero"/><path fill="#ffffff" d="M 192.363281 186.65625 C 191.429688 187.066406 190.976562 187.804688 190.976562 188.863281 C 190.976562 189.921875 191.429688 190.484375 193.203125 191.609375 C 194.652344 192.539062 195.195312 193.277344 195.195312 194.421875 C 195.195312 195.050781 195.066406 195.375 194.675781 195.675781 C 193.59375 196.5625 192.035156 195.980469 191.195312 194.398438 L 190.78125 193.601562 L 190.761719 194.636719 C 190.761719 195.613281 190.804688 195.699219 191.519531 196 C 193.703125 196.910156 196.167969 195.804688 196.167969 193.902344 C 196.167969 192.625 195.777344 192.042969 194.199219 191.003906 C 191.820312 189.425781 191.257812 188.234375 192.382812 187.109375 C 193.355469 186.117188 194.699219 186.503906 195.410156 187.976562 C 195.84375 188.929688 195.910156 188.882812 195.777344 187.714844 C 195.714844 186.9375 195.605469 186.785156 195.042969 186.59375 C 194.15625 186.269531 193.183594 186.3125 192.363281 186.65625 Z M 192.363281 186.65625 " fill-opacity="1" fill-rule="nonzero"/><path fill="#ffffff" d="M 21.078125 186.742188 L 21.726562 186.894531 L 21.726562 195.761719 L 21.078125 195.894531 C 20.730469 195.980469 21.574219 196.042969 23.003906 196.066406 C 26.160156 196.085938 27.046875 195.847656 28.34375 194.574219 C 30.636719 192.367188 30.183594 188.839844 27.414062 187.328125 C 26.3125 186.699219 26.136719 186.679688 23.347656 186.636719 C 21.746094 186.613281 20.730469 186.65625 21.078125 186.742188 Z M 26.789062 187.414062 C 28.367188 188.539062 29.035156 191.652344 28.128906 193.601562 C 27.414062 195.15625 26.269531 195.871094 24.539062 195.871094 C 22.957031 195.871094 22.914062 195.761719 22.914062 191.242188 C 22.914062 188.386719 22.980469 187.21875 23.195312 187.023438 C 23.628906 186.570312 25.945312 186.808594 26.789062 187.414062 Z M 26.789062 187.414062 " fill-opacity="1" fill-rule="nonzero"/><path fill="#ffffff" d="M 38.683594 186.875 C 38.855469 187.066406 38.921875 188.472656 38.878906 191.457031 L 38.8125 195.761719 L 38.164062 195.894531 C 37.820312 195.980469 39.03125 196.042969 40.910156 196.066406 L 44.285156 196.085938 L 44.371094 195.027344 C 44.394531 194.445312 44.371094 194.011719 44.285156 194.074219 C 44.175781 194.117188 44.113281 194.292969 44.113281 194.445312 C 44.113281 195.375 41.839844 196.152344 40.585938 195.675781 L 39.980469 195.4375 L 40.046875 193.339844 L 40.109375 191.222656 L 40.78125 191.15625 C 41.863281 191.046875 42.902344 191.414062 43.183594 192 C 43.421875 192.453125 43.464844 192.367188 43.441406 191.113281 C 43.441406 190.332031 43.378906 189.859375 43.3125 190.03125 C 43.097656 190.660156 42.511719 190.894531 41.257812 190.894531 L 40.003906 190.894531 L 40.003906 189.101562 C 40.003906 187.996094 40.109375 187.199219 40.261719 187.046875 C 40.609375 186.699219 42.640625 186.722656 43.074219 187.046875 C 43.246094 187.199219 43.507812 187.523438 43.636719 187.761719 C 43.851562 188.128906 43.875 188.085938 43.894531 187.371094 L 43.894531 186.570312 L 41.171875 186.570312 C 38.878906 186.570312 38.46875 186.613281 38.683594 186.875 Z M 38.683594 186.875 " fill-opacity="1" fill-rule="nonzero"/><path fill="#ffffff" d="M 52.828125 186.917969 L 53.414062 187.242188 L 53.371094 191.394531 L 53.304688 195.523438 L 52.765625 195.804688 C 52.265625 196.042969 52.351562 196.085938 53.628906 196.066406 C 54.796875 196.066406 54.949219 196.023438 54.539062 195.828125 C 53.867188 195.503906 53.824219 195.15625 53.890625 191.285156 L 53.953125 187.867188 L 57.523438 192.128906 L 61.09375 196.410156 L 61.222656 191.761719 C 61.285156 189.210938 61.351562 187.089844 61.371094 187.046875 C 61.394531 187.023438 61.632812 186.894531 61.914062 186.785156 C 62.261719 186.65625 62.042969 186.59375 60.984375 186.59375 C 59.945312 186.59375 59.707031 186.65625 60.054688 186.785156 C 60.722656 187.066406 60.789062 187.523438 60.722656 191.089844 L 60.660156 194.207031 L 57.523438 190.398438 L 54.386719 186.59375 L 52.222656 186.59375 Z M 52.828125 186.917969 " fill-opacity="1" fill-rule="nonzero"/><path fill="#ffffff" d="M 70.175781 186.722656 C 71.128906 186.960938 71.148438 187.089844 71.148438 191.328125 C 71.148438 195.566406 71.128906 195.699219 70.175781 195.9375 C 69.9375 195.980469 70.628906 196.042969 71.691406 196.023438 C 72.773438 196.023438 73.398438 195.980469 73.097656 195.9375 C 72.792969 195.871094 72.492188 195.71875 72.402344 195.566406 C 72.316406 195.4375 72.230469 193.511719 72.230469 191.308594 C 72.230469 187.089844 72.253906 186.960938 73.203125 186.722656 C 73.441406 186.679688 72.773438 186.613281 71.691406 186.613281 C 70.628906 186.613281 69.9375 186.679688 70.175781 186.722656 Z M 70.175781 186.722656 " fill-opacity="1" fill-rule="nonzero"/><path fill="#ffffff" d="M 82.636719 187.199219 C 82.09375 187.695312 81.964844 187.996094 81.964844 188.691406 C 81.964844 189.75 82.460938 190.421875 84.085938 191.523438 C 85.726562 192.625 86.09375 193.082031 86.226562 194.097656 C 86.332031 194.832031 86.246094 195.070312 85.792969 195.523438 C 84.667969 196.648438 82.960938 196.042969 82.160156 194.269531 L 81.746094 193.382812 L 81.746094 194.398438 C 81.746094 195.027344 81.878906 195.523438 82.074219 195.742188 C 82.808594 196.476562 85.253906 196.457031 86.269531 195.699219 C 86.570312 195.480469 86.960938 194.917969 87.132812 194.445312 C 87.609375 193.101562 87.132812 192.257812 85.164062 190.941406 C 83.175781 189.597656 82.9375 189.316406 82.9375 188.257812 C 82.9375 187.609375 83.066406 187.285156 83.457031 186.980469 C 83.804688 186.699219 83.867188 186.570312 83.628906 186.570312 C 83.457031 186.570312 83.003906 186.851562 82.636719 187.199219 Z M 82.636719 187.199219 " fill-opacity="1" fill-rule="nonzero"/><path fill="#ffffff" d="M 96.714844 187.109375 C 95.265625 188.324219 95.675781 189.921875 97.796875 191.328125 C 99.65625 192.582031 100.132812 193.167969 100.132812 194.292969 C 100.132812 196.734375 97.386719 196.734375 96.132812 194.3125 C 95.613281 193.296875 95.570312 193.253906 95.675781 193.902344 C 95.742188 194.292969 95.808594 194.855469 95.808594 195.15625 C 95.808594 195.546875 96 195.761719 96.5625 196 C 98.769531 196.910156 101.214844 195.699219 101.214844 193.707031 C 101.214844 192.667969 100.675781 192 98.988281 190.851562 C 98.25 190.378906 97.472656 189.773438 97.277344 189.511719 C 96.738281 188.863281 96.78125 187.671875 97.363281 187.066406 C 97.992188 186.398438 97.515625 186.441406 96.714844 187.109375 Z M 96.714844 187.109375 " fill-opacity="1" fill-rule="nonzero"/><path fill="#ffffff" d="M 110.167969 186.917969 C 110.449219 187.199219 110.515625 187.910156 110.515625 191.308594 C 110.515625 195.566406 110.492188 195.699219 109.542969 195.9375 C 109.304688 196 110.625 196.023438 112.460938 196 L 115.816406 195.980469 L 115.878906 194.898438 L 115.921875 193.816406 L 115.554688 194.550781 C 114.992188 195.65625 113.132812 196.238281 112.007812 195.65625 C 111.640625 195.4375 111.597656 195.179688 111.597656 193.277344 L 111.597656 191.113281 L 112.441406 191.113281 C 113.542969 191.113281 114.582031 191.5 114.691406 191.933594 C 114.753906 192.128906 114.796875 191.761719 114.820312 191.113281 C 114.839844 189.988281 114.820312 189.964844 114.496094 190.421875 C 114.214844 190.832031 113.976562 190.894531 112.871094 190.894531 L 111.574219 190.894531 L 111.640625 188.882812 L 111.703125 186.894531 L 112.917969 186.828125 C 114.257812 186.765625 115.164062 187.261719 115.339844 188.148438 C 115.382812 188.410156 115.445312 188.171875 115.46875 187.585938 L 115.488281 186.570312 L 112.65625 186.570312 C 110.082031 186.570312 109.867188 186.59375 110.167969 186.917969 Z M 110.167969 186.917969 " fill-opacity="1" fill-rule="nonzero"/><path fill="#ffffff" d="M 161.453125 186.765625 L 162.101562 186.894531 L 162.167969 192.714844 C 162.210938 197.644531 162.167969 198.617188 161.886719 199.050781 C 161.472656 199.65625 161 199.699219 160.695312 199.117188 C 160.457031 198.660156 159.722656 198.53125 159.507812 198.898438 C 159.074219 199.613281 160.71875 200.046875 161.863281 199.503906 C 163.097656 198.941406 163.183594 198.617188 163.292969 192.625 L 163.398438 187.132812 L 163.941406 186.851562 C 164.417969 186.613281 164.265625 186.570312 162.640625 186.59375 C 161.519531 186.613281 161.0625 186.679688 161.453125 186.765625 Z M 161.453125 186.765625 " fill-opacity="1" fill-rule="nonzero"/><path fill="#ffffff" d="M 205.210938 186.828125 C 205.492188 187.109375 205.578125 195.136719 205.296875 195.566406 C 205.210938 195.71875 204.90625 195.871094 204.605469 195.9375 C 204.300781 195.980469 205.597656 196.042969 207.480469 196.066406 L 210.875 196.085938 L 210.875 193.816406 L 210.488281 194.574219 C 210.011719 195.546875 208.714844 196.066406 207.480469 195.742188 L 206.660156 195.546875 L 206.59375 193.320312 L 206.527344 191.113281 L 207.265625 191.113281 C 208.625 191.113281 209.363281 191.371094 209.707031 191.957031 C 209.882812 192.257812 209.988281 192.34375 209.925781 192.128906 C 209.859375 191.914062 209.792969 191.394531 209.792969 190.960938 C 209.792969 190.289062 209.773438 190.246094 209.449219 190.550781 C 209.234375 190.789062 208.714844 190.894531 207.828125 190.894531 L 206.550781 190.894531 L 206.550781 188.972656 C 206.550781 186.808594 206.550781 186.785156 208.257812 186.785156 C 209.296875 186.785156 209.96875 187.21875 210.292969 188.085938 C 210.355469 188.257812 210.421875 187.996094 210.421875 187.480469 L 210.445312 186.570312 L 207.695312 186.570312 C 205.554688 186.570312 205.015625 186.636719 205.210938 186.828125 Z M 205.210938 186.828125 " fill-opacity="1" fill-rule="nonzero"/></svg>